<svg xmlns="http://www.w3.org/2000/svg" viewBox="0 0 24 24" width="32" height="32">
  <defs>
    <linearGradient id="gradient" x1="0%" y1="0%" x2="100%" y2="0%">
      <stop offset="0%" style="stop-color:#3B82F6" />
      <stop offset="100%" style="stop-color:#14B8A6" />
    </linearGradient>
  </defs>
  <rect width="24" height="24" fill="url(#gradient)" rx="4" />
  <path
    d="M3.055 13H5a2 2 0 012 2v1a2 2 0 002 2h1a2 2 0 012 2v2.945M8 3.935V5.5A2.5 2.5 0 0010.5 8h.5a2 2 0 012 2 2 2 0 104 0 2 2 0 012-2h1.064M15 20.488V18a2 2 0 012-2h1.064M21 12a9 9 0 11-18 0 9 9 0 0118 0z"
    fill="white"
  />
</svg>